<svg version="1.1" id="Layer_1" xmlns="http://www.w3.org/2000/svg" xmlns:xlink="http://www.w3.org/1999/xlink" x="0px" y="0px"
	 viewBox="0 0 279.5 279.5" style="enable-background:new 0 0 279.5 279.5;" xml:space="preserve">
<style type="text/css">
	.st0{fill-rule:evenodd;clip-rule:evenodd;fill:#E1F4FD;}
	.st1{fill-rule:evenodd;clip-rule:evenodd;fill:#1AA4A5;}
	.st2{fill-rule:evenodd;clip-rule:evenodd;fill:#2484C6;}
	.st3{fill-rule:evenodd;clip-rule:evenodd;fill:#005BAA;}
	.st4{fill-rule:evenodd;clip-rule:evenodd;fill:#281E7D;}
	.st5{fill:#281E7D;}
	.st6{fill-rule:evenodd;clip-rule:evenodd;fill:none;stroke:#FFFFFF;stroke-width:8;stroke-miterlimit:10;}
</style>
<circle id="XMLID_4_" class="st0" cx="139.75" cy="139.75" r="135.75"/>
<path class="st1" d="M273.7,161.84c-2.94-0.81-6.42-1.7-10.54-2.67c-80.13-18.91-76.88,51.38-173.6,5.5
	c-28.94-13.73-54.94-6.53-83.31-0.2C17.88,227.64,73.22,275.5,139.75,275.5C207.2,275.5,263.14,226.3,273.7,161.84z"/>
<path class="st2" d="M171.72,166.74c-37.35-5.46-70.63,22.11-98.57,18.75c-24.21-2.91-44.13-15.98-66.91-21.08
	C17.84,227.6,73.2,275.5,139.75,275.5c61.94,0,114.18-41.48,130.48-98.18C225.51,191.32,207.87,172.02,171.72,166.74z"/>
<path class="st3" d="M270.27,177.16c-68.59-37.46-99.14,31.34-142.08,16.93c-50.39-16.91-84.21-9.33-114.2-3.16
	c7.02,17.23,17.48,32.7,30.52,45.54c24.6,23.94,58.18,38.69,95.22,38.69c37.74,0,71.9-15.31,96.61-40.05
	C252.1,219.15,263.93,199.32,270.27,177.16z"/>
<path class="st4" d="M258.8,205.02c-11.1-0.2-23.7,2.22-39.38,9.42c-53.07,24.33-57.46-21.3-151.84,9.4
	c-8.19,2.66-21.19,2.08-34.25,0.19c24.87,31.36,63.29,51.47,106.42,51.47C191.06,275.5,235.72,247.03,258.8,205.02z"/>
<g>
	<path class="st5" d="M40.24,106.16h6.27l14.97,34.4h-8.55l-2.96-7.29H36.6l-2.87,7.29h-8.36L40.24,106.16z M43.16,116.17
		l-4.18,10.69h8.41L43.16,116.17z"/>
	<path class="st5" d="M64.93,106.16h10.3l14.63,23.91h0.1v-23.91h7.58v34.4h-9.91L72.6,116.08h-0.1v24.49h-7.58V106.16z"/>
	<path class="st5" d="M111.18,112.87h-9.82v-6.71h27.21v6.71h-9.82v27.7h-7.58V112.87z"/>
	<path class="st5" d="M132.32,106.16h7.58v34.4h-7.58V106.16z"/>
	<path class="st5" d="M164.25,111.85c-1.52-2.24-3.74-3.35-6.66-3.35c-0.91,0-1.8,0.12-2.67,0.36c-0.88,0.24-1.66,0.62-2.36,1.12
		c-0.7,0.5-1.26,1.15-1.68,1.94c-0.42,0.79-0.63,1.73-0.63,2.79c0,1.55,0.44,2.76,1.31,3.62c0.87,0.86,1.96,1.56,3.26,2.11
		c1.29,0.55,2.71,1.04,4.25,1.48c1.54,0.44,2.96,1.02,4.25,1.75c1.3,0.73,2.38,1.69,3.26,2.89c0.87,1.2,1.31,2.84,1.31,4.91
		c0,1.55-0.33,2.96-1,4.2c-0.66,1.25-1.54,2.29-2.62,3.13c-1.09,0.84-2.3,1.49-3.64,1.94c-1.34,0.45-2.7,0.68-4.06,0.68
		c-2.11,0-4.11-0.4-6-1.19c-1.9-0.79-3.51-2.1-4.83-3.91l3.21-2.28c0.74,1.26,1.78,2.28,3.1,3.04c1.32,0.76,2.89,1.14,4.7,1.14
		c0.87,0,1.74-0.14,2.62-0.41s1.66-0.68,2.35-1.21c0.69-0.54,1.27-1.19,1.72-1.97c0.45-0.78,0.68-1.67,0.68-2.67
		c0-1.2-0.25-2.19-0.75-2.99c-0.5-0.79-1.17-1.46-1.99-1.99c-0.83-0.53-1.77-0.98-2.82-1.34c-1.05-0.36-2.14-0.71-3.26-1.07
		c-1.12-0.36-2.2-0.76-3.26-1.21c-1.05-0.45-1.99-1.03-2.82-1.72c-0.83-0.7-1.49-1.57-1.99-2.62c-0.5-1.05-0.75-2.37-0.75-3.96
		c0-1.65,0.32-3.09,0.95-4.32c0.63-1.23,1.47-2.25,2.53-3.06c1.05-0.81,2.24-1.41,3.57-1.8c1.33-0.39,2.69-0.58,4.08-0.58
		c1.94,0,3.71,0.31,5.3,0.92c1.59,0.62,3.06,1.7,4.42,3.26L164.25,111.85z"/>
	<path class="st5" d="M178.48,140.57h-3.5v-34.4h3.5V140.57z"/>
	<path class="st5" d="M212.69,135.32h0.1v-29.16h3.5v34.4h-4.37l-20.51-29.45h-0.1v29.45h-3.5v-34.4h4.37L212.69,135.32z"/>
	<path class="st5" d="M229.12,121.08h0.05h0.44l16.18-14.92h5.01l-17.35,15.6l18.32,18.81h-5.15l-16.91-17.74h-0.53h-0.05v17.74
		h-3.5v-34.4h3.5V121.08z"/>
</g>
<circle id="XMLID_3_" class="st6" cx="139.75" cy="139.75" r="135.75"/>
</svg>
