<svg xmlns="http://www.w3.org/2000/svg" viewBox="-60 -10 306 83" fill="currentColor">
  <path d="M81.3405 29.0115L81.2734 27.5476L81.029 25.7736L80.8077 24.731L80.5183 23.7115L80.0746 22.7129L79.2755 21.5813L78.4323 20.5607L77.499 19.6071L76.4785 18.7426L74.725 17.677L73.1037 16.9226L71.4393 16.2802L69.7078 15.77L66.7766 15.2377L64.5124 14.9935L62.2481 14.9275L59.7846 14.9055L58.0752 14.9935L56.3877 15.2377L54.7003 15.5708L52.7025 16.1031L51.6139 16.4353L50.5263 16.8576L49.5499 17.3669L48.5725 17.9882L47.7293 18.6976L46.9302 19.4961L46.2202 20.3395L45.9087 20.7828L45.8647 15.77L16.2503 15.881V13.5737L16.3164 12.7312L16.4726 11.9108L16.8942 10.8241L17.2938 10.0697L17.8045 9.38233L18.4034 8.76098L19.3577 8.00654L20.269 7.49726L21.8663 6.96395L23.1982 6.6988L24.5532 6.56473L26.2626 6.54272L27.4834 6.63176L28.6821 6.85389L30.1251 7.18608L30.9243 7.45224L31.6794 7.78542L32.3673 8.22867L33.1224 8.87204L33.6772 9.49339L34.1659 10.2028L34.5655 10.9132L34.8539 11.7117L35.0312 12.354L45.5542 12.31L45.4651 11.7997L45.3319 10.6911L45.0655 9.60445L44.6439 8.42779L44.1332 7.3862L43.267 6.1665L42.3576 5.14593L41.3142 4.19138L40.2036 3.3489L39.0058 2.57246L36.8738 1.64093L34.6756 1.04259L32.3894 0.598339L28.638 0.111063L26.3287 0L23.9974 0.0660394L21.667 0.222126L19.8684 0.421244L18.4254 0.598339L17.0053 0.842481L15.6284 1.21969L14.2524 1.68496L12.8534 2.2843L11.7218 2.90565L10.6563 3.61505L9.65683 4.41451L8.72449 5.30101L7.99244 6.1665L7.32649 7.05301L6.77069 8.02956L6.32706 9.04914L5.97155 10.1137L5.7282 11.2014L5.61704 12.31L5.59401 13.1305L5.57198 15.903L0 16.0141V23.0901H5.70617L5.7282 51.8805L16.4285 51.9465L16.2943 23.0231H34.8319L34.898 51.7924H45.9538L45.9087 32.5385V32.0072L45.9979 31.0086L46.1982 30.0551L46.5086 29.1225L46.9082 28.214L47.5961 27.2155L48.3292 26.35L49.1504 25.5735L50.0607 24.8861L51.659 24.0436L52.9909 23.5334L54.3668 23.1121L55.7658 22.823L57.253 22.6018L58.5408 22.4688L59.7616 22.4467L60.9603 22.5568L62.16 22.7569L63.2916 23.0671L64.4232 23.4443L65.9775 24.1987L66.7766 24.687L67.5097 25.2633L68.1536 25.8847L68.7975 26.6841L69.3523 27.5927L69.7739 28.5682L70.1074 29.5448L70.3287 30.5413L70.3958 31.0516L70.4839 32.3614L70.6622 51.7924L81.5177 51.8354L81.3405 29.877V29.0115ZM127.006 28.0129L126.916 26.7052L126.716 25.4625L126.472 24.2648L126.185 23.3112L125.784 22.4017L125.097 21.4031L124.141 20.3826L123.143 19.451L122.056 18.6306L120.19 17.6991L118.415 16.9676L116.572 16.3463L114.684 15.858L111.398 15.3927L108.425 15.1706L105.384 15.0155L104.85 14.9935H102.697L100.589 15.1716L98.4359 15.4378L96.5482 15.7269L95.1943 15.9931L93.8834 16.3473L92.5966 16.8576L90.9753 17.656L89.9328 18.2774L88.9784 18.9658L88.0681 19.7642L87.291 20.6287L86.581 21.5833L85.937 22.6038L85.4043 23.6464L84.9817 24.733L84.6712 25.8857L84.538 26.463L84.4049 27.5947L95.5929 27.5046L95.6159 27.1274L95.7942 26.3079L96.1487 25.3324L96.4381 24.689L96.8367 24.1117L97.6348 23.4023L98.8125 22.7139L100.011 22.1596L101.298 21.6943L102.564 21.3401L103.92 21.096L105.252 20.9629H105.385L106.606 20.9409L107.938 21.052L109.269 21.2741L110.58 21.5843L111.867 22.0275L112.889 22.4708L113.822 22.981L114.62 23.4463L115.109 23.8455L115.531 24.3108L115.973 24.9542L116.241 25.6195L116.42 26.1729L116.441 26.7942L116.375 27.3275L116.13 28.0369L115.841 28.5252L115.287 29.0785L114.665 29.5218L114.043 29.8109L112.312 30.2332L111.113 30.4093L105.386 30.9646L91.489 32.2743L90.7339 32.4524L89.6684 32.6735L88.3135 33.2049L86.8483 34.0253L86.1153 34.4926L85.2501 35.181L84.6953 35.8243L84.0513 36.8209L83.6518 37.6654L83.3403 38.818L83.1851 39.8826L83.141 40.9903L83.2292 42.345L83.4295 43.5857L83.6518 44.4963L84.0063 45.3838L84.6953 46.4914L85.3392 47.3339L86.0492 48.1113L87.5804 49.1529L88.8682 49.8623L90.5326 50.5057L92.4203 51.061L94.3291 51.5042L96.2829 51.8364L98.2587 52.0145L100.235 52.0596L102.212 51.9935L104.143 51.7944L105.387 51.5953L106.097 51.4622L108.028 50.995L109.915 50.3966L111.758 49.7082L113.534 48.8878L115.243 47.9552L116.397 47.2248V51.8815L127.164 51.9475L127.031 28.4141L127.006 28.0129ZM116.393 38.4168L116.327 38.794L116.148 39.6145L115.882 40.3899L115.193 41.3885L114.438 42.297L113.284 43.4287L112.263 44.2041L111.154 44.8925L109.976 45.4908L108.778 45.9581L107.557 46.3353L106.27 46.6015L105.382 46.7125L104.959 46.7555L103.672 46.7786L102.384 46.6885L101.075 46.4894L99.8309 46.2232L98.5892 45.801L97.3904 45.2477L95.9253 44.4272L95.4797 43.96L94.969 43.1845L94.6816 42.6082L94.4823 42.0529L94.3922 41.3645L94.4152 40.8332L94.5263 40.2999L94.8358 39.6135L95.2364 39.1252L95.702 38.682L96.5683 38.2387L97.5447 37.8615L98.5211 37.6174L105.383 36.908L107.669 36.6848L110.577 36.3977L112.42 36.1535L113.462 35.9304L114.462 35.6212L115.438 35.178L116.393 34.6657V38.4168ZM164.677 39.8806L164.323 40.4129L164.034 40.8772L163.324 41.7217L162.569 42.5191L161.726 43.2075L160.215 44.028L158.862 44.5613L157.485 44.9385L156.065 45.2497L154.067 45.4488L152.579 45.4918L151.114 45.3588L149.671 45.1146L148.228 44.7824L146.962 44.4282L145.963 44.049L145.032 43.6288L144.143 43.0745L143.256 42.343L142.434 41.5226L141.746 40.6571L141.147 39.6815L140.613 38.705L140.215 37.5063L139.925 36.4437L139.725 35.3331L139.68 34.2234L139.725 33.1368L139.882 32.0292L140.259 30.6084L140.679 29.5878L141.212 28.5912L141.834 27.6377L142.546 26.7932L143.344 26.0178L144.389 25.2413L145.654 24.5529L146.94 24.0206L148.251 23.5554L149.649 23.2222L151.048 22.979L152.335 22.868L153.712 22.846L155.087 22.957L156.443 23.2002L157.863 23.4443L158.906 23.7555L159.883 24.1767L160.816 24.664L161.705 25.2633L162.526 25.9507L163.257 26.6841L163.879 27.5266L164.344 28.148L175.912 28.0579L175.756 27.5026L175.356 26.328L174.889 25.2633L174.291 24.2208L173.314 22.934L172.403 21.9144L171.405 21.0049L170.34 20.1614L169.207 19.43L167.963 18.7867L166.721 18.2103L164.611 17.4339L161.859 16.7235L159.484 16.2802L157.086 15.9921L154.688 15.837L152.269 15.815L149.85 15.9471L147.451 16.1922L145.099 16.6124L142.745 17.1457L140.414 17.8331L138.393 18.5425L137.172 19.1419L135.884 19.8733L134.775 20.6497L133.754 21.5372L132.799 22.4908L131.8 23.7115L131.024 24.8861L130.357 26.0838L129.825 27.3035L129.269 29.3226L128.982 31.0086L128.848 32.7386L128.758 34.6667L128.803 36.0425L128.915 37.3952L129.202 38.728L129.559 40.0587L130.29 41.7437L130.912 42.9624L131.645 44.094L132.467 45.1827L134.11 46.7555L135.442 47.7991L136.84 48.7087L139.127 49.8843L141.012 50.6387L142.924 51.2581L146.297 51.9915L149.027 52.3017L151.779 52.4798L154 52.6129L156.065 52.5889L158.128 52.4118L160.149 52.1456L162.347 51.7474L163.967 51.3482L165.544 50.8149L167.098 50.1715L168.697 49.375L169.805 48.7527L170.85 48.0203L171.804 47.2228L172.714 46.3123L173.514 45.3367L174.245 44.2932L174.846 43.2075L175.356 42.0759L175.734 40.8772L176 40.0357L164.677 39.8806Z"/>
</svg>