<svg fill="currentColor" xmlns="http://www.w3.org/2000/svg" viewBox="0 0 735.26 225.62">
   <path d="M211.33,143.62c3.62,8.16,8.55,12.23,14.92,12.23,6.12,0,9.14-3,9.21-8.87,0-2.37-1-3.95-3.55-5.46a25.6,25.6,0,0,0-3.42-1.84c-1-.46-2.5-1-4.54-1.77l-4.66-1.85c-9.73-3.81-14.53-10.25-14.53-18.6a18.13,18.13,0,0,1,5.91-13.67c4-3.75,8.94-5.59,14.93-5.59A23.85,23.85,0,0,1,245.65,109l-8.88,7.82c-3.22-4.14-7.16-6.17-11.83-6.17a6.35,6.35,0,0,0-6.71,6.7c0,4.27,3.68,6.51,12.1,9.73,2.3.85,4.21,1.64,5.59,2.23a32.82,32.82,0,0,1,5,2.7,19.83,19.83,0,0,1,4.41,3.61,17.67,17.67,0,0,1,4,11.11A20.31,20.31,0,0,1,242.82,162c-4.27,4.15-10,6.25-17.09,6.25-6.44,0-11.9-1.71-16.44-5.33a31.81,31.81,0,0,1-9.79-12.81Z"/>
   <path d="M262.31,71.84h14v39.05c5.85-8.48,13.48-12.69,22.88-12.69,12.69,0,20.05,7,20.05,21.17v47.79h-14V123c0-4.86-.92-8.15-2.7-9.79s-4.4-2.56-7.89-2.56q-6.4,0-12.42,7.69c-3.94,5.06-5.92,11.83-5.92,20.18v28.66h-14Z"/>
   <path d="M387.49,109.05a36.71,36.71,0,0,1,7.43,22v6.05H346.87a20.27,20.27,0,0,0,4.4,13.34c3,3.62,7.1,5.39,12.43,5.39a19.5,19.5,0,0,0,17.74-11.44l12,4.74c-3.42,6.63-7.36,11.5-11.84,14.52s-10.45,4.54-17.87,4.54c-10.79,0-19.46-4.6-24.26-11.51a40.77,40.77,0,0,1,0-46.93c4.8-6.9,13.47-11.57,24.26-11.57C374.15,98.2,382.69,102.54,387.49,109.05Zm-7.43,16.37a17.94,17.94,0,0,0-5.12-10.52c-2.76-2.83-6.51-4.27-11.24-4.27a15.36,15.36,0,0,0-11.05,4.14,18.54,18.54,0,0,0-5.52,10.65Z"/>
   <path d="M409,71.84h14v95.32H409Z"/>
   <path d="M442.11,71.84h14v95.32h-14Z"/>
   <path d="M468.47,133.24c0-9.86,3-18.14,9.07-24.92s14.2-10.12,24.32-10.12,18.28,3.35,24.32,10.12,9.08,15.06,9.08,24.92-3,18.14-9.08,24.91-14.13,10.06-24.32,10.06-18.27-3.35-24.32-10.06S468.47,143.1,468.47,133.24Zm14.86,0a26.14,26.14,0,0,0,4.86,16c3.22,4.41,7.82,6.64,13.67,6.64a16.11,16.11,0,0,0,13.68-6.64,26.25,26.25,0,0,0,4.93-16,25.93,25.93,0,0,0-4.93-15.91,17.31,17.31,0,0,0-27.35,0A26.27,26.27,0,0,0,483.33,133.24Z"/>
   <path d="M605.65,116.94l-12.49,5.39c-3.48-7.83-9.13-11.7-16.82-11.7-5.72,0-10.06,2-12.89,6.17s-4.2,9.6-4.2,16.44,1.38,12.29,4.2,16.43,7.17,6.18,12.89,6.18c7.69,0,13.34-3.88,16.82-11.7l12.49,5.39c-5.45,12.49-15.25,18.73-29.31,18.67-10.19,0-18.15-3.35-23.67-10s-8.28-15.06-8.28-25,2.76-18.28,8.28-25S566.08,98.2,576.34,98.2C590.47,98.2,600.2,104.45,605.65,116.94Z"/>
   <path d="M618.34,71.84h14v54.5l24.52-27h17.75l-28.4,31.22,30.17,36.62H658.57l-26.23-32.48v32.48h-14Z"/>
   <path d="M211.33,143.62c3.62,8.16,8.55,12.23,14.92,12.23,6.12,0,9.14-3,9.21-8.87,0-2.37-1-3.95-3.55-5.46a25.6,25.6,0,0,0-3.42-1.84c-1-.46-2.5-1-4.54-1.77l-4.66-1.85c-9.73-3.81-14.53-10.25-14.53-18.6a18.13,18.13,0,0,1,5.91-13.67c4-3.75,8.94-5.59,14.93-5.59A23.85,23.85,0,0,1,245.65,109l-8.88,7.82c-3.22-4.14-7.16-6.17-11.83-6.17a6.35,6.35,0,0,0-6.71,6.7c0,4.27,3.68,6.51,12.1,9.73,2.3.85,4.21,1.64,5.59,2.23a32.82,32.82,0,0,1,5,2.7,19.83,19.83,0,0,1,4.41,3.61,17.67,17.67,0,0,1,4,11.11A20.31,20.31,0,0,1,242.82,162c-4.27,4.15-10,6.25-17.09,6.25-6.44,0-11.9-1.71-16.44-5.33a31.81,31.81,0,0,1-9.79-12.81Z"/>
   <path d="M262.31,71.84h14v39.05c5.85-8.48,13.48-12.69,22.88-12.69,12.69,0,20.05,7,20.05,21.17v47.79h-14V123c0-4.86-.92-8.15-2.7-9.79s-4.4-2.56-7.89-2.56q-6.4,0-12.42,7.69c-3.94,5.06-5.92,11.83-5.92,20.18v28.66h-14Z"/>
   <path d="M387.49,109.05a36.71,36.71,0,0,1,7.43,22v6.05H346.87a20.27,20.27,0,0,0,4.4,13.34c3,3.62,7.1,5.39,12.43,5.39a19.5,19.5,0,0,0,17.74-11.44l12,4.74c-3.42,6.63-7.36,11.5-11.84,14.52s-10.45,4.54-17.87,4.54c-10.79,0-19.46-4.6-24.26-11.51a40.77,40.77,0,0,1,0-46.93c4.8-6.9,13.47-11.57,24.26-11.57C374.15,98.2,382.69,102.54,387.49,109.05Zm-7.43,16.37a17.94,17.94,0,0,0-5.12-10.52c-2.76-2.83-6.51-4.27-11.24-4.27a15.36,15.36,0,0,0-11.05,4.14,18.54,18.54,0,0,0-5.52,10.65Z"/>
   <path d="M409,71.84h14v95.32H409Z"/>
   <path d="M442.11,71.84h14v95.32h-14Z"/>
   <path d="M468.47,133.24c0-9.86,3-18.14,9.07-24.92s14.2-10.12,24.32-10.12,18.28,3.35,24.32,10.12,9.08,15.06,9.08,24.92-3,18.14-9.08,24.91-14.13,10.06-24.32,10.06-18.27-3.35-24.32-10.06S468.47,143.1,468.47,133.24Zm14.86,0a26.14,26.14,0,0,0,4.86,16c3.22,4.41,7.82,6.64,13.67,6.64a16.11,16.11,0,0,0,13.68-6.64,26.25,26.25,0,0,0,4.93-16,25.93,25.93,0,0,0-4.93-15.91,17.31,17.31,0,0,0-27.35,0A26.27,26.27,0,0,0,483.33,133.24Z"/>
   <path d="M605.65,116.94l-12.49,5.39c-3.48-7.83-9.13-11.7-16.82-11.7-5.72,0-10.06,2-12.89,6.17s-4.2,9.6-4.2,16.44,1.38,12.29,4.2,16.43,7.17,6.18,12.89,6.18c7.69,0,13.34-3.88,16.82-11.7l12.49,5.39c-5.45,12.49-15.25,18.73-29.31,18.67-10.19,0-18.15-3.35-23.67-10s-8.28-15.06-8.28-25,2.76-18.28,8.28-25S566.08,98.2,576.34,98.2C590.47,98.2,600.2,104.45,605.65,116.94Z"/>
   <path d="M618.34,71.84h14v54.5l24.52-27h17.75l-28.4,31.22,30.17,36.62H658.57l-26.23-32.48v32.48h-14Z"/>
   <path d="M63.31,106.7a.59.59,0,0,0,.89.36h0A62.78,62.78,0,0,1,72,102.83a1,1,0,0,0,.67-1c0-2.27,0-4.55,0-6.82a27.52,27.52,0,0,1,.7-6.27A28.84,28.84,0,0,1,101,66.25a28.86,28.86,0,0,1,27.57,22.46,27.52,27.52,0,0,1,.7,6.27c0,2.27,0,4.55,0,6.82a1,1,0,0,0,.67,1,62.78,62.78,0,0,1,7.83,4.22h0a.59.59,0,0,0,.89-.36,3.68,3.68,0,0,0,.1-.93c0-3.92.1-7.84,0-11.76A38.29,38.29,0,0,0,101,56.78,38.31,38.31,0,0,0,63.22,94c-.11,3.92,0,7.84,0,11.76A3.68,3.68,0,0,0,63.31,106.7Z"/>
   <path d="M149,127.19a64.84,64.84,0,0,0-17.71-12.59,70.94,70.94,0,0,0-17.88-5.95,68.92,68.92,0,0,0-8.82-1.06c-1.21-.07-2.41-.1-3.61-.1s-2.39,0-3.6.1a68.71,68.71,0,0,0-8.82,1.06,70.94,70.94,0,0,0-17.88,5.95,65,65,0,0,0-17.72,12.59c-.17.17-.33.36-.53.58,3,3,6,6,9,8.89,11.18-10.59,24.34-16.18,39.6-16.24s28.43,5.65,39.61,16.24l8.95-8.89C149.31,127.55,149.15,127.36,149,127.19Z"/>
   <path d="M117.1,135.74a43.72,43.72,0,0,0-11.72-2.82c-1.47-.15-2.95-.23-4.43-.25s-3,.1-4.42.25a43.72,43.72,0,0,0-11.72,2.82,38.47,38.47,0,0,0-13.94,9.2c-.17.17-.33.36-.5.55,3,3,5.95,5.88,8.95,8.86a4.32,4.32,0,0,0,.38-.32,30.35,30.35,0,0,1,18.66-8.37c.87-.07,1.73-.12,2.59-.12s1.73.05,2.6.12A30.35,30.35,0,0,1,122.21,154a4.36,4.36,0,0,0,.37.32l9-8.86c-.17-.19-.33-.38-.5-.55A38.47,38.47,0,0,0,117.1,135.74Z"/>
   <path d="M105.43,158.34a22,22,0,0,0-9,0,15.35,15.35,0,0,0-7.82,4.13c-.28.27-.53.56-.82.88L101,176.44l13.12-13.09c-.29-.32-.54-.61-.82-.88A15.39,15.39,0,0,0,105.43,158.34Z"/>
</svg>