
<svg viewBox="0 -2 1174 115" fill="currentColor" xmlns="http://www.w3.org/2000/svg">
<path d="M36 0.333338C35.3333 0.600005 32.2666 1.53334 29.2 2.2C11.2 6.86667 -0.133349 24.8667 3.33332 43.4C5.73332 56.8667 15.7333 65 35.8666 70.3333C53.7333 74.8667 58.1333 78.4667 54.1333 84.7333C50.8 90.0667 33.4666 88.6 20.4 81.9333L11.3333 77.2667L5.33332 88.4667C1.86665 94.6 -0.400016 100.333 -1.55754e-05 101C1.46665 103.267 12.8 108.6 23.3333 111.8C31.2 114.333 36.2666 115 46.6666 114.867C78.9333 114.6 96.6666 101.667 96.6666 78.0667C96.6666 57.8 87.4666 49 58 41.5333C50.2666 39.5333 42.9333 37 41.7333 35.9333C38.5333 33.2667 38.6666 29.9333 42 27C46.2666 23.1333 63.0666 24.7333 74.6666 30.0667C79.6 32.4667 83.8666 34.2 84.1333 33.9333C84.9333 33.1333 94 11.4 94 10.3333C94 9.66667 88.1333 7.26667 81.0666 4.86667C70.2666 1.4 65.3333 0.600005 52.6666 0.200005C44.2666 -0.066662 36.8 -0.066662 36 0.333338Z"/>
<path d="M825.733 1.13333C810.4 4.73333 795.6 16.6 788.4 31.2667C784.667 38.8667 784 41.8 783.6 52.3333C782.667 72.2 786.667 84.8667 797.467 96.8667C814.933 116.333 854.133 121.267 881.333 107.4L887.2 104.333L881.2 90.0667L875.2 75.9333L868.933 79.8C861.6 84.3333 851.067 86.6 844.533 85.1333C831.6 82.2 823.333 71.1333 823.333 56.6C823.333 38.4667 832.933 27.6667 849.067 27.6667C854.667 27.6667 858.4 28.7333 865.467 32.3333C870.533 34.8667 875.067 36.4667 875.6 35.9333C876.667 34.7333 886 12.2 886 10.6C886 8.86667 877.6 5.26666 866.4 2.33333C855.467 -0.466669 835.2 -1.13334 825.733 1.13333Z"/>
<path d="M1069.07 1.66666C1051.33 6.46666 1040.8 19.2667 1040.67 36.0667C1040.67 45.2667 1043.2 52.0667 1049.07 58.0667C1054.93 64.2 1061.2 67.1333 1076.4 71.1333C1083.47 73 1090.4 75.5333 1091.87 76.8667C1094.8 79.8 1093.87 84.3333 1089.73 86.4667C1082.8 90.2 1062 86.2 1053.6 79.6667C1051.73 78.2 1049.87 77 1049.47 77C1049.07 77 1046 82.3333 1042.67 89L1036.67 100.867L1042.4 104.2C1056.67 112.467 1077.6 116.733 1093.47 114.467C1107.6 112.6 1112.27 111.133 1119.73 106.333C1132 98.6 1137.6 83.8 1134 68.8667C1130.67 55.1333 1118.27 46.3333 1094.27 40.8667C1082.53 38.2 1076.67 35.1333 1076.67 31.6667C1076.67 30.8667 1077.87 29.1333 1079.47 27.5333C1082 25 1083.47 24.7333 1092.53 25.2667C1101.73 25.8 1106.93 27.2667 1121.33 33.8C1122.13 34.0667 1124.8 28.7333 1127.47 22.0667L1132.4 9.66666L1124.27 6.59999C1106.4 -0.200012 1083.6 -2.20001 1069.07 1.66666Z"/>
<path d="M113.6 1.93333C113.067 2.33333 112.667 8.59999 112.667 15.8V28.8667L129.733 29.2667L146.667 29.6667V71.4V113L166.667 112.733L186.667 112.333L186.933 71L187.2 29.6667L204 29.2667L220.667 28.8667V15V0.999994H167.6C138.4 0.999994 114 1.39999 113.6 1.93333Z"/>
<path d="M262.133 4.59999C258.667 13.5333 223.333 111.133 223.333 112.067C223.333 112.6 232.133 112.867 243.067 112.733L262.667 112.333L266 102.6L269.333 92.8667L288.667 93.2667L308 93.6667L311.2 103.4L314.267 113H334.267C352.8 113 354.267 112.867 353.333 110.6C352.533 108.333 317.6 11.8 315.067 4.59999L313.733 0.999994H288.667H263.6L262.133 4.59999ZM293.333 45.1333C295.867 54.2 298 62.4667 298 63.2667C298 64.4667 295.2 65 288.133 65H278.267L283.067 46.3333C285.733 36.2 288.133 27.9333 288.4 28.2C288.667 28.4667 290.933 36.0667 293.333 45.1333Z"/>
<path d="M378 56.8667V113H397.333H416.667V96.2V79.5333L421.467 79.9333C426.133 80.3333 426.8 81 436.267 96.6L446.267 113H466.933H487.6L485.2 109.4C483.867 107.267 477.733 97.9333 471.467 88.4667C464.933 78.6 460.8 71 461.6 70.7333C462.533 70.3333 465.6 68.3333 468.667 66.2C480.667 57.5333 484.667 37.4 477.6 21.9333C473.867 13.8 468.267 8.86667 457.733 4.60001C451.333 2.06667 447.333 1.80001 414.4 1.26667L378 0.73334V56.8667ZM439.467 31.5333C440.933 33.4 442 36.7333 442 39.6667C442 42.6 440.933 45.9333 439.467 47.8C437.333 50.4667 435.467 51 426.8 51.4L416.667 51.9333V39.6667V27.4L426.8 27.9333C435.467 28.3333 437.333 28.8667 439.467 31.5333Z"/>
<path d="M515.333 57.1333V113.267L554.4 112.733C590.667 112.333 593.867 112.067 600.533 109.267C610.4 105.4 616.267 99.4 618.8 90.6C623.333 75.2667 616.267 61.1333 602 57.2667L597.333 56.0667L603.067 53.6667C614.267 49 619.6 38.2 616.933 25.4C615.067 16.2 610.8 10.6 602.8 6.46667C594 2.2 583.333 1.13334 547.067 1H515.333V57.1333ZM576.933 29C580.133 32.8667 580 39 576.667 42.3333C574.4 44.6 572.267 45 563.333 45H552.667V34.8667V24.6L563.6 25.2667C572.8 25.8 574.8 26.3333 576.933 29ZM574.533 69.1333C578.667 71 581.067 77.2667 579.333 81.5333C577.2 87.1333 572.933 89 562.4 89H552.667V78.3333V67.6667H562C567.067 67.6667 572.667 68.3333 574.533 69.1333Z"/>
<path d="M647.6 39.2667C648 75.4 648.267 78.0667 651.067 85.1333C657.6 101.533 671.333 111.267 691.733 114.333C720.8 118.733 745.467 107.4 754.133 85.5333C757.067 78.0667 757.2 75.8 757.733 39.2667L758.267 1H738.133H718V34.6C718 70.0667 717.2 76.2 712.4 80.6C705.867 86.4667 694.933 85.1333 690.667 78.0667C688.267 74.0667 688 70.4667 687.333 37.6667L686.667 1.66667L666.933 1.26667L647.2 0.866671L647.6 39.2667Z"/>
<path d="M914 57V113H933.333H952.667V92.7333V72.3333L965.067 92.3333L977.467 112.333L1000.4 112.733C1013.07 112.867 1023.33 112.733 1023.33 112.467C1023.33 112.067 1014.4 99.5333 1003.33 84.3333C992.4 69.2667 983.333 56.6 983.333 56.3333C983.333 55.9333 991.467 43.5333 1001.33 28.6L1019.33 1.66666L999.067 1.26666C987.867 1.13333 978.133 1.13333 977.2 1.53333C976.4 1.79999 970.667 10.8667 964.533 21.6667L953.333 41.2667L952.933 21.1333L952.533 0.999994H933.333H914V57Z"/>
<path d="M1158 4.6C1149.73 7.66666 1147.2 18.3333 1153.33 24.3333C1159.47 30.6 1171.2 27.2667 1173.2 18.8667C1175.47 10.0667 1166.27 1.53333 1158 4.6ZM1165.87 7C1172.13 10.2 1173.33 18.0667 1168.4 23.2667C1162.53 29.4 1151.33 25 1151.33 16.4667C1151.33 11.8 1153.2 8.86666 1157.33 6.6C1160.8 4.6 1161.47 4.6 1165.87 7Z"/>
<path d="M1156.67 16.4667C1156.67 21 1157.2 23.5333 1158 23C1158.8 22.6 1159.33 21 1159.33 19.5333C1159.33 16.0667 1161.2 16.3333 1163.33 20.3333C1164.27 22.2 1165.73 23.6667 1166.4 23.6667C1167.07 23.6667 1166.67 22.2 1165.6 20.4667C1163.73 17.6667 1163.73 17.1333 1165.6 15.2667C1168.53 12.3333 1165.73 9 1160.53 9C1156.8 9 1156.67 9.13334 1156.67 16.4667ZM1164 13C1164 14.0667 1162.93 15.1333 1161.73 15.4C1160 15.6667 1159.33 15 1159.33 13C1159.33 11 1160 10.3333 1161.73 10.6C1162.93 10.8667 1164 11.9333 1164 13Z"/>
</svg>
