<svg viewBox="0 0 265 45" fill="currentColor" xmlns="http://www.w3.org/2000/svg">
  <path d="m34.7569922 20.4872713c.85441 0 1.5473335-.6924247 1.5473335-1.5467366 0-.8534731-.6929235-1.5458978-1.5473335-1.5458978l-.0083889.0004195-.0046139-.0004195h-24.5887174c-.85399046 0-1.54691396.6924247-1.54691396 1.5458978 0 .8543119.6929235 1.5467366 1.54691396 1.5467366v.0016776h24.5887174v-.0016776zm0 13.2852424c.85441 0 1.5473335-.692844 1.5473335-1.5467365 0-.8547313-.6929235-1.5463171-1.5473335-1.5463171h-.0083889-.0046139-24.5887174c-.85399046 0-1.54691396.6915858-1.54691396 1.5463171 0 .8538925.6929235 1.5467365 1.54691396 1.5467365v.0012583h24.5887174v-.0020971zm-13.1542214-9.7358846-.0134222.0012582v-.0012582h-11.4340766c-.85399046 0-1.54691396.6932634-1.54691396 1.5471559 0 .8547313.6929235 1.5458978 1.54691396 1.5458978v.002097h11.4340766v-.002097h.0092277c.8590238 0 1.5515279-.6911665 1.5515279-1.5458978 0-.8538925-.6925041-1.5471559-1.5473334-1.5471559zm-11.4474988-13.2848231c-.85399046 0-1.54691396.6932635-1.54691396 1.5479948 0 .8538925.6929235 1.5463172 1.54691396 1.5463172v.0008388h11.4340766v-.002097l.0092277.0012582c.8590238 0 1.5515279-.6924247 1.5515279-1.5463172 0-.8547313-.6925041-1.5479948-1.5473334-1.5479948l-.0134222.0012582v-.0012582zm15.9791849 0c-.8539905 0-1.5469139.6932635-1.5469139 1.5479948 0 .8538925.6929234 1.5463172 1.5469139 1.5463172v.0008388h5.7241688v-.002097l.0079695.0012582c.8594432 0 1.5519473-.6924247 1.5519473-1.5463172 0-.8547313-.6925041-1.5479948-1.5477528-1.5479948l-.012164.0012582v-.0012582zm-3.6785345-10.68120574c12.4021561 0 22.4562579 10.05294884 22.4562579 22.45284404 0 12.4007339-10.0541018 22.4536828-22.4562579 22.4536828-12.4013173 0-22.45583851-10.0529489-22.45583851-22.4536828 0-12.3998952 10.05452121-22.45284404 22.45583851-22.45284404z"/>
  <g >
      <path d="m71.3146628 33.2477641c-1.1094326.3216776-2.5397409.6202883-4.2905052.8975099-1.7516032.2772214-3.5908705.4160419-5.5182213.4160419-1.9550341 0-3.582901-.2633814-4.8806645-.7884667-1.2998607-.5250851-2.3283404-1.2623853-3.0875362-2.2110615-.7587764-.9474181-1.2986024-2.0793709-1.6198974-3.3925033s-.4815231-2.7579555-.4815231-4.3344692v-12.8272608h6.5236314v12.039633c0 2.1011796.2772533 3.6189777.8325987 4.5529751.5532483.9344168 1.5909558 1.4007864 3.108928 1.4007864.4660036 0 .9626267-.0218086 1.4886111-.0658454.524726-.0431978.9915684-.0943644 1.4005276-.1530799v-17.7744692h6.5240509zm20.8731458-10.9018925c0-4.2023591-1.5473335-6.303958-4.6411614-6.303958-.6719512 0-1.335933.0876539-1.9927842.2625426-.6564317.175308-1.1887077.3938138-1.5972474.6563564v11.8647444c.3204562.0595545.7285764.1094627 1.2251995.1534994.4962037.0440367 1.0364492.0658454 1.6198974.0658454 1.780545 0 3.124028-.6131586 4.0287713-1.8390564.9034851-1.2254784 1.3573248-2.84519 1.3573248-4.8599738m6.6544983.175308c0 1.8394758-.2692838 3.5028047-.8091098 4.9908257-.5402455 1.4888597-1.3216719 2.7587942-2.3426016 3.809384-1.022188 1.0501704-2.2767485 1.860865-3.7653596 2.4299869-1.4890305.5691219-3.1823309.8530538-5.0790622.8530538-.788557 0-1.6136057-.036907-2.4747267-.1086239-.8602822-.0733945-1.7067226-.1685977-2.5389019-.2851901-.8321793-.116173-1.6274475-.254574-2.3866433-.4160419-.7583569-.1597903-1.4303082-.3279685-2.0137565-.5032765v-32.17824382l6.5244703-1.05100917v11.47051109c.7285764-.3208387 1.4886111-.5695412 2.2763292-.7448492.788557-.1748887 1.634578-.2625426 2.5393214-.2625426 1.6349975 0 3.0795667.28519 4.3349663.8543119 1.2549801.5691219 2.3056903 1.3789777 3.1521308 2.4299869.8464404 1.0501704 1.4890305 2.3129751 1.9260924 3.7867365.4383203 1.4737615.6568512 3.1157012.6568512 4.9249804"/>
      <path d="m103.952 34.036h6.524v-23.028h-6.524z"/>
      <path d="m122.283002 22.6964875c0 4.1738401 1.546915 6.2611796 4.640742 6.2611796.670694 0 1.335514-.0880734 1.992365-.2633814.656852-.1744692 1.188709-.3938139 1.598087-.6563565v-11.7775098c-.321715-.0574574-.730254-.1094626-1.226877-.1526606-.495785-.0440366-1.035611-.0658453-1.619059-.0658453-1.780964 0-3.123608.6060288-4.028771 1.8168283-.904744 1.2112189-1.356487 2.8233814-1.356487 4.8377457m-6.655337-.175308c0-1.7795019.269285-3.4071822.809949-4.8817823.539407-1.4729227 1.320413-2.7424378 2.341763-3.8085453 1.021769-1.0648493 2.277168-1.8893841 3.766198-2.4736042 1.488612-.5833814 3.181073-.8757012 5.078224-.8757012.788557 0 1.613186.036907 2.474307.1098821.861121.072975 1.707981.1681782 2.540579.2843512.831341.1170118 1.625771.2558323 2.385805.4160419.758357.1606292 1.429469.328388 2.013757.5032766v32.0679424l-6.524051 1.1223066v-11.5187418c-.730254.3216776-1.488612.5687025-2.277169.7440105-.787718.175308-1.634578.2625426-2.539321.2625426-3.269575 0-5.765274-1.0723985-7.487097-3.2171953-1.722661-2.1456356-2.582944-5.0570904-2.582944-8.7347838m47.454984 10.7265846c-1.109853.3216776-2.539742.6202883-4.290925.8975099-1.751184.2772214-3.590451.4160419-5.516963.4160419-1.956292 0-3.58332-.2633814-4.881923-.7884667-1.299441-.5250851-2.327921-1.2623853-3.087117-2.2110615-.758776-.9474181-1.299021-2.0793709-1.619478-3.3925033-.321714-1.3131324-.481522-2.7579555-.481522-4.3344692v-12.8272608h6.523211v12.039633c0 2.1011796.277254 3.6189777.832599 4.5529751.553668.9344168 1.590956 1.4007864 3.108928 1.4007864.466423 0 .962627-.0218086 1.488611-.0658454.524726-.0431978.991568-.0943644 1.400528-.1530799v-17.7744692h6.524051zm18.82017-11.4269358c0-2.1015989-.27096-3.5900393-.810367-4.4653211-.540665-.8757012-1.4668-1.3135517-2.780922-1.3135517-.408539 0-.830921.0218086-1.269241.0658452-.437901.0427786-.861121.0952032-1.269661.1526606v17.7748886h-6.523631v-22.2402096c.553667-.1455309 1.204227-.2990302 1.948742-.4596593.744096-.1597904 1.532653-.3061599 2.363994-.4378506.831759-.1308519 1.685749-.2331848 2.561551-.3061599s1.736084-.109882 2.583783-.109882c1.66352 0 3.012455.2122149 4.049743.6349672 1.03561.4231717 1.889601.927287 2.561133 1.5106684.933684-.6710354 2.007045-1.19654 3.217983-1.5769332 1.211358-.3782961 2.327082-.5687024 3.350109-.5687024 1.838848 0 3.348851.2562516 4.530848.7666579 1.182416.5104063 2.124489 1.2326082 2.824963 2.1666055.700473.9348362 1.181577 2.0433028 1.444569 3.3274967.262573 1.2846134.393859 2.7143382.393859 4.2904326v13.0025687h-6.523211v-12.2145216c0-2.1015989-.270542-3.5900393-.809949-4.4653211-.540665-.8757012-1.46722-1.3135517-2.780922-1.3135517-.350236 0-.839309.0876539-1.4668.2625425-.403087.1123984-1.072521.3908782-1.072521.3908782v4.7752556 12.5647181h-6.524052z"/>
  </g>
  <path d="m210.599583 32.9028939c.377502 0 .708444-.0121625.991149-.036907.283545-.0247445.523468-.0574574.722705-.0968807v-2.7118218c-.109475-.0494888-.282706-.1019135-.52137-.1564352-.238246-.0545215-.566671-.0822017-.98318-.0822017-.238245 0-.487396.0171952-.745355.0524246-.258797.03481-.497461.1090433-.715573.2231193-.218531.1144954-.397634.2709305-.53647.4693053-.140095.1987942-.208884.4617563-.208884.7901442 0 .2877065.047397.5313761.141772.729751.094795.1992136.228598.3577457.402248.4768545.17407.1195281.382954.2067627.625812.2612844.243279.0545216.519274.0813631.827146.0813631m-.088922-7.1821756c.506271 0 .936622.0725557 1.288536.2164089.353173.1434337.638815.3426474.856927.5955438.218949.2533159.378339.5544431.477328.9021232.09857.3476803.148903.7242989.148903 1.1323722v4.8574575c-.099409.0301965-.243278.0620707-.432028.0973001-.18875.0348099-.407281.0712975-.655594.1111403-.24873.0402621-.524306.0721362-.827985.0973-.302419.0243251-.613228.0373264-.931587.0373264-.406862 0-.781427-.0448755-1.124113-.1346264-.343107-.0893317-.641751-.2306685-.895097-.4240105-.252924-.194181-.450903-.4420447-.595192-.7452687-.144708-.3032242-.216434-.672713-.216434-1.1101442 0-.4173001.079695-.7750458.239084-1.0732373.158131-.2981913.381695-.543958.669854-.7373.288579-.1941809.630845-.3355178 1.028899-.4248494.397215-.0893315.828824-.134207 1.295667-.134207.139256 0 .286061.0075492.439997.022228.153098.0155177.30326.03481.446709.0603933.143871.0239055.268446.0494888.372887.0738138.104023.0251638.176167.0473919.216015.0671035v-.4768544c0-.2684143-.019294-.5288598-.059561-.7821757-.039428-.2533158-.126673-.4818872-.260895-.6852949-.133803-.203827-.322554-.3673918-.565831-.4919529-.243279-.1241414-.563735-.1862122-.96095-.1862122-.56667 0-.989051.0394233-1.267144.1195282-.278931.079266-.481523.1438532-.611132.193342l-.133803-.8492791c.168198-.0792661.429512-.1543381.782266-.2235387.352334-.0696199.777231-.1044298 1.274274-.1044298m8.323387 8.0467627c-.595611 0-1.122855-.0943644-1.57963-.283093-.456776-.1891482-.837213-.4592399-1.140472-.8123722-.30242-.352713-.533954-.7746265-.692504-1.2665794-.15897-.4915334-.237826-1.0354915-.237826-1.6314548 0-.6056093.081373-1.1571166.244957-1.6545216.163584-.4961468.400151-.9235125.708023-1.2808388.308292-.3577457.680759-.6332896 1.117822-.8274705.437062-.193342.928652-.2906422 1.475607-.2906422.41693 0 .807433.03481 1.169414.1048493.363239.0692005.64259.1581127.842666.2679947l-.253765.8341809c-.198397-.0989777-.422381-.1782438-.670274-.2377981-.24873-.0603932-.580931-.0901704-.998699-.0901704-.854409 0-1.503291.2755439-1.944547.8274704-.442515.5515073-.663982 1.3336829-.663982 2.3469463 0 .4567235.049494.8765401.150161 1.2590302.098989.3829095.260476.7104587.483621.9830669.223564.2742856.511723.4873394.864476.6412582.352754.1543381.781846.2306683 1.288955.2306683.417767 0 .767585-.0469724 1.050711-.1413368.283125-.0943644.489072-.1761468.618262-.2461861l.208884.8350196c-.179104.0989778-.460132.1962779-.842247.2902229-.381694.0943643-.782684.1417562-1.199613.1417562m6.608737-.8645871c.377501 0 .707605-.0121625.991569-.036907.282706-.0247445.523467-.0574574.722704-.0968807v-2.7118218c-.109895-.0494888-.283546-.1019135-.52221-.1564352-.238664-.0545215-.56625-.0822017-.983598-.0822017-.237826 0-.486557.0171952-.744935.0524246-.258379.03481-.497463.1090433-.715155.2231193-.218531.1144954-.398053.2709305-.536889.4693053-.138837.1987942-.208045.4617563-.208045.7901442 0 .2877065.046978.5313761.140933.729751.094375.1992136.228598.3577457.403088.4768545.17323.1195281.381694.2067627.625392.2612844.243278.0545216.519273.0813631.827146.0813631m-.090181-7.1821756c.507529 0 .936622.0725557 1.289375.2164089.352753.1434337.638815.3426474.857765.5955438.218112.2533159.377082.5544431.47691.9021232.09815.3476803.148903.7242989.148903 1.1323722v4.8574575c-.099828.0301965-.244117.0620707-.432448.0973001-.188331.0348099-.40812.0712975-.655593.1111403-.248731.0402621-.524726.0721362-.826726.0973-.304517.0243251-.613649.0373264-.932008.0373264-.407282 0-.782265-.0448755-1.125371-.1346264-.343107-.0893317-.640494-.2306685-.893418-.4240105-.253765-.194181-.452582-.4420447-.596033-.7452687-.144289-.3032242-.216433-.672713-.216433-1.1101442 0-.4173001.079275-.7750458.237825-1.0732373.159809-.2981913.382954-.543958.671532-.7373.287739-.1941809.630426-.3355178 1.027641-.4248494.397215-.0893315.829663-.134207 1.296505-.134207.139256 0 .286061.0075492.439579.022228.154355.0155177.303259.03481.447968.0603933.14303.0239055.267605.0494888.371627.0738138.104862.0251638.176168.0473919.216854.0671035v-.4768544c0-.2684143-.020553-.5288598-.0604-.7821757-.039847-.2533158-.126253-.4818872-.260476-.6852949-.134222-.203827-.323392-.3673918-.565831-.4919529-.243698-.1241414-.565413-.1862122-.961369-.1862122-.567089 0-.989472.0394233-1.267144.1195282-.278092.079266-.481942.1438532-.611131.193342l-.134223-.8492791c.168617-.0792661.429092-.1543381.783104-.2235387.351495-.0696199.776813-.1044298 1.273016-.1044298m10.269068 1.5801205c-.089761-.0700393-.200915-.144692-.335975-.2243774-.133385-.0788467-.289837-.1534995-.468521-.2231194-.179103-.0692004-.373306-.1266579-.581351-.1715333-.208883-.0444561-.427415-.0666842-.655593-.0666842-.477329 0-.877479.0842989-1.199613.2533159-.322973.169017-.583868.3946527-.782685.6781651-.198817.2826737-.342687.615675-.432867.9981652-.088922.3829095-.133384.7872083-.133384 1.2141546 0 1.012844.253345 1.7912451.760454 2.3322674.50627.5418611 1.177383.8115334 2.01166.8115334.477328 0 .86196-.0218086 1.155152-.0666842.292353-.0444561.513819-.0914285.662723-.1417561zm.969338 6.0644823c-.289417.0989777-.656013.1933421-1.10356.2826736-.447129.0893316-1.012961.1342072-1.698754.1342072-.56709 0-1.080491-.091848-1.5423-.2751246-.461809-.1845347-.859443-.4495937-1.192483-.7972739-.332619-.3480996-.591837-.7700131-.774715-1.2665793-.184136-.4974049-.274737-1.0585583-.274737-1.6842988 0-.5854784.075921-1.1244036.229437-1.6167759.154356-.4915335.381276-.9163827.678663-1.273709.297806-.3581651.663142-.6362255 1.095171-.8350197.432447-.1983749.926135-.2973525 1.483159-.2973525.50627 0 .946268.0717169 1.318735.2155701.372048.144692.643009.2805766.812046.4101704v-4.1436436l.969338-.1786631zm7.226244-4.2320944c-.020134-.804823-.208884-1.4305635-.566671-1.8776408-.356948-.4470774-.864057-.6706161-1.520069-.6706161-.34814 0-.65811.0700394-.931169.2088598-.273898.1388205-.511723.3250328-.715154.5586369-.20385.2340236-.363239.5045348-.476909.8115335-.114509.3090957-.181619.6311927-.201334.9692267zm-5.469146.6110616c0-.6756488.096472-1.2644823.289837-1.7656618.194203-.5020184.447547-.9214155.760453-1.2594496.312906-.3376147.671113-.5888335 1.073361-.7528178.402248-.1631455.817079-.2457667 1.243655-.2457667.943751 0 1.696236.3082569 2.257873.9243512.561638.615675.842247 1.5639319.842247 2.8460288 0 .0796855-.002517.1589516-.00755.2382176-.004615.079266-.012584.1539188-.022231.2231193h-5.409585c.02978.944063.263412 1.6696199.700473 2.1758323.437063.5070511 1.132083.7599476 2.086321.7599476.526823 0 .943752-.049489 1.252044-.1488861.307873-.0993971.531438-.1841153.670693-.2528964l.178264.8341808c-.138836.0796855-.400151.1736304-.782266.2826737-.382533.109882-.832598.1644037-1.348935.1644037-.675307 0-1.251205-.0989778-1.728115-.2981914-.476908-.1983748-.86909-.4772739-1.176963-.8341808-.308291-.3577457-.532695-.782595-.671112-1.2741285-.139675-.4919528-.208464-1.030878-.208464-1.6167759zm8.271334-3.5759056c.287319-.0796855.662723-.1690171 1.124951-.269253.46223-.0989777 1.060778-.1484665 1.796065-.1484665.973113 0 1.67862.2826737 2.115682.8488598.049075-.0385846.146386-.1061076.290255-.2008913.144709-.0943643.325909-.1904063.544021-.2906422.218531-.0989777.474813-.1832765.768004-.2533159.292354-.0692004.618263-.1040104.975211-.1040104.587222 0 1.061616.0872346 1.424016.2604456.36282.1744692.643009.4173001.842246.7301703.197978.3128704.33262.6886501.402248 1.1256619.068789.4370118.104023.9138663.104023 1.4297248v4.3063696h-.9685v-3.9926605c0-.5070512-.02223-.9469988-.066691-1.319004-.0453-.372844-.134223-.6811009-.268445-.9239319-.134223-.2436696-.325909-.4269462-.574221-.5515071-.248311-.1241416-.570864-.1862124-.968499-.1862124-.297806 0-.568768.0280997-.812046.0822019-.243278.0545216-.454678.1216251-.633362.2008912-.179523.0801049-.325909.1585321-.440417.2386369-.11367.0792661-.195462.1396593-.245376.1782438.089761.258768.156034.5498296.201753.872346.043623.3225164.066692.6626474.066692 1.0208126v4.3801835h-.968499v-3.9926605c0-.5070512-.022231-.9469988-.067111-1.319004-.044461-.372844-.137159-.6811009-.275576-.9239319-.140095-.2436696-.335555-.4269462-.58932-.5515071-.253345-.1241416-.588062-.1862124-1.00583-.1862124-.466842 0-.86154.0251638-1.184093.0746527-.322974.0494889-.52976.0943643-.618682.1342071v6.7644561h-.968499zm14.961149 7.5990983c-.324232-.607287-.637556-1.2393184-.941655-1.8944168-.304517-.6546789-.588481-1.3181652-.852731-1.9883618-.263412-.6693577-.505852-1.3399737-.725641-2.0101702-.21937-.6701967-.407281-1.3286502-.564573-1.9753605h1.028479c.108637.477274.247473.9918742.416929 1.5433814.167778.5506683.358625 1.1197903.572123 1.7061074.213079.5858979.449226 1.1868939.707185 1.8034076.257959.6160944.539825 1.2221232.844344 1.8168284.221046-.613578.416508-1.1927654.588481-1.7388205.170295-.5464744.328006-1.0895936.473134-1.6306159.146806-.5410223.286482-1.0946266.422382-1.6603932.13548-.5661861.273898-1.1793447.41567-1.8398952h.969338c-.324232 1.4418873-.68831 2.8443512-1.090558 4.2061337-.403925 1.3622018-.844343 2.6078113-1.322091 3.7368283-.18917.446658-.383793.8312451-.583449 1.1550197-.198816.322097-.420703.5884141-.66482.7972739-.244537.2080209-.528921.3623591-.853571.4617562-.323812.0989777-.705927.148886-1.145085.148886-.249152 0-.475651-.0297772-.68076-.0893317-.203851-.0595543-.331362-.1044298-.380438-.1346264l.192946-.8044036c.039847.0301965.151839.0721362.336395.1266578.184136.0545217.375403.0822019.574639.0822019.278512 0 .530598-.0297772.754163-.0893316.224403-.0599738.426156-.1623066.605679-.3057405.179522-.1438532.341429-.3304849.484878-.558637.145129-.2289908.283545-.5166972.418607-.8643774m-50.221182-14.9696671c-.595193 0-1.122855-.0943644-1.579631-.2835125-.456356-.1883093-.836794-.4592399-1.139632-.8119528-.30326-.352713-.534793-.7750459-.692924-1.2665792-.159809-.4915335-.238245-1.0354916-.238245-1.6318742 0-.60519.081792-1.1566973.246214-1.6536829.162745-.4965661.398893-.9239319.706346-1.2812582.308712-.3573264.681179-.6332896 1.118241-.8274705.437481-.193342.929071-.2906422 1.475608-.2906422.417767 0 .807013.03481 1.169833.1048493.36324.0696199.643009.1585321.842246.2679947l-.253765.8346004c-.197977-.0993972-.42322-.1786633-.669854-.238637-.24873-.0595545-.580931-.089751-.999118-.089751-.854409 0-1.502033.2759633-1.944967.8274704-.441676.5506685-.662724 1.3332635-.662724 2.346527 0 .4575622.049495.8769593.149323 1.2594495.099408.3829095.260475.7104587.48404.9834862.223145.273447.511303.4865006.864057.6412582.352334.1539188.782684.2306685 1.289374.2306685.417767 0 .767585-.0473919 1.05071-.1417563.282707-.0939449.488654-.1761468.617843-.2457667l.209304.8346002c-.179103.0989778-.459712.1962779-.842666.2902229-.381276.0943644-.781846.1417562-1.199613.1417562m9.135223-4.0084299c0-.9633552-.223145-1.7308519-.670693-2.3016514-.44629-.5716382-1.052388-.8576671-1.818295-.8576671-.764229 0-1.370327.2860289-1.817456.8576671-.447548.5707995-.670693 1.3382962-.670693 2.3016514 0 .9637746.223145 1.7287549.670693 2.2953604.447129.5657667 1.053227.8488598 1.817456.8488598.765907 0 1.372005-.2830931 1.818295-.8488598.447548-.5666055.670693-1.3315858.670693-2.2953604m1.02806 0c0 .6060288-.086825 1.1579555-.260056 1.6541023-.174489.4965662-.417348.9188991-.730254 1.2665792-.313325.3476803-.683696.6181914-1.110691.8119528-.427834.1941809-.898871.2906422-1.416047.2906422-.516337 0-.988213-.0964613-1.415208-.2906422-.427834-.1937614-.797366-.4642725-1.110272-.8119528-.312906-.3476801-.556184-.770013-.730254-1.2665792-.17407-.4961468-.260476-1.0480735-.260476-1.6541023 0-.6060289.086406-1.1571166.260476-1.6536828s.417348-.9222543.730254-1.2741284c.312906-.352713.682438-.62616 1.110272-.8203408.426995-.1929227.898871-.2902229 1.415208-.2902229.517176 0 .988213.0973002 1.416047.2902229.426995.1941808.797366.4676278 1.110691.8203408.312906.3518741.555765.7775622.730254 1.2741284.173231.4965662.260056 1.0476539.260056 1.6536828m6.900419-2.4590511c-.089761-.0692005-.201333-.1438532-.335976-.2231193-.133383-.079266-.290255-.1539187-.468939-.2235387-.178684-.0692004-.372887-.1262385-.580932-.1715333-.208884-.0444561-.426995-.0666842-.655593-.0666842-.476909 0-.87706.0842989-1.200032.2537353-.322553.1685976-.583029.3942333-.782265.6777457-.198818.2826737-.342688.615675-.432449.9977457-.089761.3824902-.133803.7876278-.133803 1.2145741 0 1.0132635.253345 1.7912451.760455 2.3322674.50627.5418611 1.177382.8119528 2.011658.8119528.47691 0 .86196-.022228 1.155153-.0671036.292353-.0444561.51382-.0914285.662723-.1417561zm.968919 6.0653211c-.288579.0989777-.656013.1933421-1.103142.2830931-.447547.0893316-1.012959.1337877-1.698752.1337877-.56667 0-1.080911-.091848-1.5423-.2759634-.461809-.183696-.859444-.4491743-1.192902-.7968545-.332621-.3476802-.591418-.7695937-.774297-1.2661598-.184136-.497405-.275156-1.0585584-.275156-1.6842989 0-.5854784.076759-1.1244037.229857-1.6167759.154355-.4915335.380856-.9163827.678243-1.2732896.297805-.3585845.663562-.6362254 1.095591-.8354391.432447-.1979554.926973-.2973525 1.483157-.2973525.506271 0 .946269.0717169 1.318317.2155701.372467.1442725.643429.2809961.812465.4101704v-4.14238538l.968919-.17908256zm7.213157-4.231675c-.020134-.8052424-.208464-1.4305635-.566251-1.8784797-.358207-.4466579-.864057-.6697771-1.520069-.6697771-.34814 0-.65853.0696199-.931588.2084403-.273898.1388205-.511723.3254522-.716412.558637-.202593.2336042-.361981.5041153-.476071.8119528s-.1812.6311926-.201333.9692267zm-5.469566.6106422c0-.6756488.096892-1.2644823.290257-1.7665006.194203-.5011796.447547-.9205767.760873-1.2586108.312906-.3376147.669854-.5884141 1.072102-.7528178.402668-.1631455.817079-.2457667 1.244495-.2457667.94375 0 1.697075.3082569 2.257872.9235124.561219.6169332.842247 1.56519.842247 2.8468676 0 .0796855-.002517.1585322-.007131.2382176-.004614.0792661-.013003.1543381-.02223.2231193h-5.410005c.029362.944063.262573 1.6696199.700473 2.1758323.437482.5070511 1.132503.7603669 2.086741.7603669.525984 0 .943332-.0494888 1.251205-.1493054.307453-.0993971.531017-.1836959.671111-.2537352l.178684.8350196c-.140094.0796855-.40015.1736304-.783104.2826737-.382114.109882-.83134.1644037-1.348096.1644037-.676566 0-1.252044-.0989778-1.728953-.2981914-.47649-.1983748-.869511-.4768545-1.176964-.8341808-.308292-.3577457-.532276-.7830145-.670693-1.2745479-.139675-.491114-.208884-1.0304586-.208884-1.6163565z"/>
</svg>